<svg width="20" height="22" viewBox="0 0 20 22" fill="none" xmlns="http://www.w3.org/2000/svg">
<g id="spring_tree_plant_garden_nature_wood_forest_icon_133298 1" clip-path="url(#clip0_1_64)">
<path id="Vector" d="M17.4121 5.78883C17.5392 5.20179 17.501 4.59003 17.3019 4.02421C17.1028 3.45838 16.7509 2.96158 16.2869 2.59118C15.8229 2.22077 15.2657 1.99188 14.6796 1.93092C14.0936 1.86997 13.5026 1.97945 12.9749 2.24671C12.7781 1.59602 12.3822 1.02679 11.8453 0.622472C11.3083 0.21815 10.6586 0 9.99133 0C9.32405 0 8.67433 0.21815 8.13739 0.622472C7.60046 1.02679 7.20456 1.59602 7.00772 2.24671C6.48004 1.97945 5.88905 1.86997 5.303 1.93092C4.71695 1.99188 4.15975 2.22077 3.69575 2.59118C3.23175 2.96158 2.87988 3.45838 2.68078 4.02421C2.48167 4.59003 2.44346 5.20179 2.57056 5.78883C1.80273 5.92958 1.11434 6.35854 0.640876 6.9913C0.167411 7.62405 -0.0568314 8.41476 0.0122868 9.20778C0.081405 10.0008 0.438877 10.7387 1.01434 11.2762C1.58981 11.8138 2.34158 12.112 3.12169 12.1122H3.18414C3.34977 12.9405 3.83102 13.6677 4.52202 14.1339C5.21302 14.6 6.05717 14.7669 6.86876 14.5979C7.68036 14.4289 8.39291 13.9377 8.84967 13.2325C9.30644 12.5273 9.46999 11.6658 9.30436 10.8375H10.0538C9.89788 11.6676 10.0715 12.5269 10.5364 13.2263C11.0012 13.9258 11.7193 14.4081 12.5327 14.5672C13.3461 14.7263 14.188 14.5492 14.8734 14.0747C15.5587 13.6003 16.0314 12.8674 16.1873 12.0373C16.5937 12.1313 17.0145 12.1414 17.4247 12.0668C17.835 11.9923 18.2265 11.8347 18.5762 11.6033C18.9259 11.3719 19.2266 11.0714 19.4607 10.7196C19.6948 10.3677 19.8576 9.97161 19.9393 9.55457C20.0211 9.13752 20.0202 8.708 19.9368 8.29131C19.8533 7.87461 19.689 7.47918 19.4535 7.12831C19.218 6.77744 18.916 6.47823 18.5654 6.24832C18.2148 6.01841 17.8227 5.86245 17.4121 5.78963V5.78883Z" fill="#2A9D8F"/>
<path id="Vector_2" d="M8 22.3772H12.0888L11.5046 9H8.58411L8 22.3772Z" fill="#2A9D8F"/>
</g>
<defs>
<clipPath id="clip0_1_64">
<rect width="20" height="22" fill="white"/>
</clipPath>
</defs>
</svg>
