<svg width="42" height="50" viewBox="0 0 42 50" fill="none" xmlns="http://www.w3.org/2000/svg">
<g id="spring_tree_plant_garden_nature_wood_forest_icon_133298 1" clip-path="url(#clip0_1_13)">
<path id="Vector" d="M36.5654 13.5876C36.8323 12.2097 36.7521 10.7738 36.3339 9.44568C35.9158 8.11758 35.1769 6.95147 34.2025 6.08206C33.2281 5.21264 32.058 4.67537 30.8273 4.5323C29.5966 4.38923 28.3555 4.6462 27.2474 5.27353C26.834 3.74621 26.0026 2.41011 24.875 1.46108C23.7475 0.512046 22.3831 0 20.9818 0C19.5805 0 18.2161 0.512046 17.0885 1.46108C15.961 2.41011 15.1296 3.74621 14.7162 5.27353C13.6081 4.6462 12.367 4.38923 11.1363 4.5323C9.9056 4.67537 8.73547 5.21264 7.76107 6.08206C6.78667 6.95147 6.04774 8.11758 5.62963 9.44568C5.21152 10.7738 5.13127 12.2097 5.39817 13.5876C3.78574 13.918 2.34012 14.9249 1.34584 16.4101C0.351563 17.8953 -0.119346 19.7513 0.0258022 21.6127C0.17095 23.4741 0.921642 25.2061 2.13012 26.4678C3.33859 27.7295 4.91732 28.4295 6.55554 28.43H6.68669C7.03452 30.3742 8.04515 32.0811 9.49625 33.1753C10.9473 34.2694 12.7201 34.6612 14.4244 34.2645C16.1287 33.8677 17.6251 32.7149 18.5843 31.0596C19.5435 29.4043 19.887 27.3821 19.5392 25.438H21.1129C20.7855 27.3863 21.1501 29.4033 22.1263 31.0451C23.1026 32.6869 24.6106 33.819 26.3187 34.1925C28.0267 34.5659 29.7948 34.1501 31.2341 33.0365C32.6734 31.9228 33.6659 30.2026 33.9933 28.2542C34.8468 28.4749 35.7303 28.4984 36.5919 28.3234C37.4535 28.1485 38.2757 27.7785 39.01 27.2354C39.7443 26.6923 40.3759 25.9871 40.8675 25.1612C41.3591 24.3353 41.7009 23.4055 41.8726 22.4266C42.0443 21.4477 42.0424 20.4396 41.8672 19.4615C41.692 18.4834 41.3469 17.5552 40.8523 16.7317C40.3577 15.9081 39.7236 15.2058 38.9874 14.6662C38.2511 14.1265 37.4276 13.7604 36.5654 13.5895V13.5876Z" fill="white"/>
<path id="Vector_2" d="M17 50.4372H25.5856L24.3591 21H18.2265L17 50.4372Z" fill="white"/>
</g>
<defs>
<clipPath id="clip0_1_13">
<rect width="42" height="50" fill="white"/>
</clipPath>
</defs>
</svg>
